<svg xmlns="http://www.w3.org/2000/svg" width="16" height="16" viewBox="0 0 16 16">
  <g fill="none" fill-opacity=".9" fill-rule="evenodd">
    <polygon fill="#7F8B91" points="10.813 9.75 14 12.938 12.938 14 9.75 10.813"/>
    <path fill="#7F8B91" d="M7,2 C9.76142375,2 12,4.23857625 12,7 C12,9.76142375 9.76142375,12 7,12 C4.23857625,12 2,9.76142375 2,7 C2,4.23857625 4.23857625,2 7,2 Z M7,3 C4.790861,3 3,4.790861 3,7 C3,9.209139 4.790861,11 7,11 C9.209139,11 11,9.209139 11,7 C11,4.790861 9.209139,3 7,3 Z"/>
  </g>
</svg>
