<svg xmlns="http://www.w3.org/2000/svg" width="16" height="16" viewBox="0 0 16 16">
  <path fill="none" stroke="#6E6E6E" d="M2,13.5 L4.11538462,8.42307692 C4.34828895,7.86410651 4.89444872,7.5 5.5,7.5 L14.75,7.5 C15.0261424,7.5 15.25,7.72385763 15.25,8 C15.25,8.06601301 15.2369281,8.13137261 15.2115385,8.19230769 L13.3846154,12.5769231 C13.151711,13.1358935 12.6055513,13.5 12,13.5 L3,13.5 C2.17157288,13.5 1.5,12.8284271 1.5,12 L1.5,4 C1.5,3.17157288 2.17157288,2.5 3,2.5 L6.29289322,2.5 C6.42550146,2.5 6.55267842,2.55267842 6.64644661,2.64644661 L8.5,4.5 L8.5,4.5 L12,4.5 C12.8284271,4.5 13.5,5.17157288 13.5,6 L13.5,6.5 L13.5,6.5"/>
</svg>
