<svg xmlns="http://www.w3.org/2000/svg" width="27" height="12" viewBox="0 0 27 12">
  <g fill="none" fill-rule="evenodd">
    <path fill="#17B05D" fill-rule="nonzero" stroke="#17B05D" stroke-linejoin="round" d="M19.5,0.5 L25,6 L19.5,11.5 L2.516,11.5312551 C1.5004,11.533119 0.5004,10.50005 0.5004,9.50005 L0.5004,2.50005 C0.5004,1.42795 1.49671,0.5 2.5004,0.5 L19.5,0.5 Z"/>
    <g fill="#FFF" transform="translate(3 3)">
      <polygon fill-rule="nonzero" points="0 0 1 0 1 2.5 4 2.5 4 0 5 0 5 6 4 6 4 3.5 1 3.5 1 6 0 6"/>
      <polygon points="12 0 17 0 17 1 15 1 15 6 14 6 14 1 12 1"/>
      <path d="M8.75,0 C10.2687831,0 11.5,1.34314575 11.5,3 C11.5,4.65685425 10.2687831,6 8.75,6 C7.23121694,6 6,4.65685425 6,3 C6,1.34314575 7.23121694,0 8.75,0 Z M8.75,0.9 C7.77797884,0.9 6.99,1.84020203 6.99,3 C6.99,4.15979797 7.77797884,5.1 8.75,5.1 C9.72202116,5.1 10.51,4.15979797 10.51,3 C10.51,1.84020203 9.72202116,0.9 8.75,0.9 Z"/>
    </g>
  </g>
</svg>
