<svg width="27" height="12" version="1.1" viewBox="0 0 27 12" xmlns="http://www.w3.org/2000/svg">
<g fill-rule="evenodd">
<path d="m2.5 0.5h17l5.5 5.5-5.5 5.5-16.984 0.03125c-1.0156 0.001869-2.0156-1.0312-2.0156-2.0312v-7c0-1.0721 0.99631-2 2-2z" fill="#db3831" stroke="#db3831" stroke-linejoin="round" stroke-width="1px"/>
<g fill="#fff">
<path d="m3 9v-6h1l3 4.5v-4.5h1v6h-1l-3-4.5v4.5h-1"/>
<path d="m12 9h-3v-6h3v1h-2v1.5h2v1h-2v1.5h2z"/>
<path d="m12.5 3 1.5 6h1l1-4.5 1 4.5h1l1.5-6h-1l-1 4.5-1-4.5h-1l-1 4.5-1-4.5z"/>
</g>
</g>
</svg>
