<svg width="16" height="16" viewBox="0 0 16 16" fill="none" xmlns="http://www.w3.org/2000/svg"><rect id="frame" width="16" height="16" fill="none"/><path d="M11.6 8.5c1.104 0 1.992-.88 1.992-1.964 0-1.085-.888-1.965-1.992-1.965s-2 .88-2 1.965c0 1.084.896 1.964 2 1.964zm-6-.786c1.328 0 2.392-1.053 2.392-2.357C7.992 4.053 6.928 3 5.6 3 4.272 3 3.2 4.053 3.2 5.357c0 1.304 1.072 2.357 2.4 2.357zm6 2.357c-1.464 0-4.4.723-4.4 2.161V14H16v-1.768c0-1.438-2.936-2.16-4.4-2.16zm-6-.785c-1.864 0-5.6.919-5.6 2.75V14h5.6v-1.768c0-.668.264-1.838 1.896-2.726-.696-.142-1.368-.22-1.896-.22z" fill="#6E6E6E"/></svg>